<?xml version="1.0" encoding="utf-8"?>
<!-- Generator: Adobe Illustrator 16.0.3, SVG Export Plug-In . SVG Version: 6.00 Build 0)  -->
<svg version="1.1" id="Zollner_Illusion" xmlns="http://www.w3.org/2000/svg" xmlns:xlink="http://www.w3.org/1999/xlink" x="0px"
	 y="0px" width="100%" height="100%" viewBox="0 0 1280 930" enable-background="new 0 0 1280 930" xml:space="preserve">
<path fill-rule="evenodd" clip-rule="evenodd" fill="#030303" d="M40,703l8,8h-8V703z M165,869l-38-38h41l-22-22h-41l-38-38h41
	l-22-22H45l-5-5v32l33,33H40v7l15,15h40l38,38H93l21,21h113l-21-21H165z M351,834l-22-22v41l-38-38v-41l-22-22v41l-38-38v-41l-22-22
	v41l-38-38v-41l-22-22v41l-38-38v-41l-22-22v41l-38-38l0.006-40.994L40,523v113l11,11v-40l38,38l0.037,40.037L111,707v-40l38,38v40
	l22,22v-40l38,38v40l22,22v-40l38,38v40l22,22v-40l38,38v5h37l-15-15V834z M40,351h8l-8-8V351z M525,869l-38-38h41l-22-22h-41
	l-38-38h41l-22-22h-41l-38-38h41l-22-22h-41l-38-38h41l-22-22h-41l-38-38h41l-22-22h-41l-38-38h41l-22-22h-41l-38-38h41l-22-22h-41
	l-38-38h41l-21.984-21.984L45,389l-5-5v31.99L73,449H40v7l15,15h40l38,38H93l22,22h40l38,38h-40l22,22h40l38,38h-40l22.011,22.011
	L275,651l38,38h-40l22,22h40l38,38l-39.952,0.048L355,771h40l38,38h-40l22,22h40l38,38h-40l21,21h113l-21-21H525z M711,834l-22-22
	v41l-38-38v-41l-22-22v41l-38-38v-41l-22-22v41l-38-38v-41l-22-22v41l-38-38v-41l-22-22v41l-38-38l0.006-40.994L389,512v41l-38-38
	v-41l-22-22v41l-38-38v-41l-22-22v41l-38-38v-41l-22-22v41l-38-38v-41l-22-22v41l-38-38v-41l-22-22v41l-38-38v-41l-11-11v113l11,11
	v-40l38,38v40l22,22v-40l38,38v40l22,22v-40l38,38v40l22,22v-40l38,38v40l22.058,22.058L291,487l38,38v40l22,22v-40l38,38v40l22,22
	v-40l38,38l0.037,40.037L471,707v-40l38,38v40l22,22v-40l38,38v40l22,22v-40l38,38v40l22,22v-40l38,38v5h37l-15-15V834z M885,869
	l-38-38h41l-22-22h-41l-38-38h41l-22-22h-41l-38-38h41l-22-22h-41l-38-38h41l-22-22h-41l-38-38h41l-22-22h-41l-38-38h41l-22-22h-41
	l-38-38h41l-22-22h-41l-38-38h41l-21.984-21.984L405,389l-38-38h41l-22-22h-41l-38-38h41l-22-22h-41l-38-38h41l-22-22h-41l-38-38h41
	l-22-22l-41,0l-38-38h41l-22-22h-41L67,51h41L97,40H40v16l33,33H40v7l15,15h40l38,38H93l22,22h40l38,38h-40l22,22h40l38,38h-40
	l22,22h40l38,38h-40l22,22h40l38,38h-40l22,22h40.012L433,449h-40l22,22h40l38,38h-40l22,22h40l38,38h-40l22,22h40l38,38h-40
	l22.011,22.011L635,651l38,38h-40l22,22h40l38,38l-39.952,0.048L715,771h40l38,38h-40l22,22h40l38,38h-40l21,21h113l-21-21H885z
	 M1071,834l-22-22v41l-38-38v-41l-22-22v41l-38-38v-41l-22-22v41l-38-38v-41l-22-22v41l-38-38v-41l-22-22v41l-38-38l0.006-40.994
	L749,512v41l-38-38v-41l-22-22v41l-38-38v-41l-22-22v41l-38-38v-41l-22-22v41l-38-38v-41l-22-22v41l-38-38v-41l-22-22v41l-38-38v-41
	l-22-22v41l-38-38v-41l-22-22v41l-38-38V54l-14-14h-8v33l-33-33h-27v45l22,22V67l38,38v40l22,22v-40l38,38v40l22,22v-40l38,38v40
	l22,22v-40l38,38v40l22,22v-40l38,38v40l22,22v-40l38,38v40l22,22v-40l38,38v40l22.058,22.058L651,487l38,38v40l22,22v-40l38,38v40
	l22,22v-40l38,38l0.037,40.037L831,707v-40l38,38v40l22,22v-40l38,38v40l22,22v-40l38,38v40l22,22v-40l38,38v5h37l-15-15V834z
	 M1207,831h33v-8l-14-14h-41l-38-38h41l-22-22h-41l-38-38h41l-22-22h-41l-38-38h41l-22-22h-41l-38-38h41l-22-22h-41l-38-38h41
	l-22-22h-41l-38-38h41l-22-22h-41l-38-38h41l-21.984-21.984L765,389l-38-38h41l-22-22h-41l-38-38h41l-22-22h-41l-38-38h41l-22-22
	h-41l-38-38h41l-22-22l-41,0l-38-38h41l-22-22h-41l-38-38h41l-11-11H344l11,11h40l38,38h-40l22,22h40l38,38h-40l22,22h40l38,38h-40
	l22,22h40l38,38h-40l22,22h40l38,38h-40l22,22h40l38,38h-40l22,22h40.012L793,449h-40l22,22h40l38,38h-40l22,22h40l38,38h-40l22,22
	h40l38,38h-40l22.011,22.011L995,651l38,38h-40l22,22h40l38,38l-39.952,0.048L1075,771h40l38,38h-40l22,22h40l38,38h-40l21,21h46
	v-26L1207,831z M591,107V67l38,38v40l22,22v-40l38,38v40l22,22v-40l38,38v40l22,22v-40l38,38v40l22,22v-40l38,38v40l22,22v-40l38,38
	v40l22,22v-40l38,38v40l22.058,22.058L1011,487l38,38v40l22,22v-40l38,38v40l22,22v-40l38,38l0.037,40.037L1191,707v-40l38,38v40
	l11,11V643l-11-11v41l-38-38v-41l-22-22v41l-38-38l0.006-40.994L1109,512v41l-38-38v-41l-22-22v41l-38-38v-41l-22-22v41l-38-38v-41
	l-22-22v41l-38-38v-41l-22-22v41l-38-38v-41l-22-22v41l-38-38v-41l-22-22v41l-38-38v-41l-22-22v41l-38-38V54l-14-14h-8v33l-33-33
	h-27v45L591,107z M793,89h-40l22,22h40l38,38h-40l22,22h40l38,38h-40l22,22h40l38,38h-40l22,22h40l38,38h-40l22,22h40l38,38h-40
	l22,22h40.012L1153,449h-40l22,22h40l38,38h-40l22,22h40l5,5v-32l-33-33h33v-8l-14-14h-41l-38-38h41l-21.984-21.984L1125,389l-38-38
	h41l-22-22h-41l-38-38h41l-22-22h-41l-38-38h41l-22-22h-41l-38-38h41l-22-22l-41,0l-38-38h41l-22-22h-41l-38-38h41l-11-11H704l11,11
	h40L793,89z M1240,576v-7h-7L1240,576z M951,107V67l38,38v40l22,22v-40l38,38v40l22,22v-40l38,38v40l22,22v-40l38,38v40l22,22v-40
	l38,38v40l11,11V283l-11-11v41l-38-38v-41l-22-22v41l-38-38v-41l-22-22v41l-38-38v-41l-22-22v41l-38-38V54l-14-14h-8v33l-33-33h-27
	v45L951,107z M1153,89h-40l22,22h40l38,38h-40l22,22h40l5,5v-32l-33-33h33v-8l-14-14h-41l-38-38h41l-11-11h-113l11,11h40L1153,89z
	 M1240,216v-7h-7L1240,216z"/>
</svg>
